<?xml version="1.0" encoding="UTF-8"?>
<svg id="Capa_2" data-name="Capa 2" xmlns="http://www.w3.org/2000/svg" viewBox="0 0 552.62 437.44">
  <defs>
    <style>
      .cls-1 {
        fill: #fff;
      }
    </style>
  </defs>
  <g id="Capa_1-2" data-name="Capa 1">
    <g>
      <path class="cls-1" d="M460.87,407.87c-1.69-4.96,19.05-14.94,4.66-11.65-6.9,1.65-13.32,4.42-19.12,8.29-3.22,2.13-11.5,7.94-14.05,2.89-1.25-4.55,6.96-23.38,3.7-26.11-5.97-2.99-14.37-3.48-17.75,3.78-4.95,6.62-5.38,15.28-8.87,22.5-4.8,5.15-9.4-.86-8.59-6.44-.47-8.87,5.08-17.91-8.58-13.58-8.67.74-7.76,11.26-10.6,17.13-1.41,2.88-5.86,3.42-8.15,1.4-2.48-3.98,1.2-10.29.3-14.8-1.18-5.62-9.13-5.8-12.25-10.24-5-5.3-5.78-13.85-2.69-20.47,1.67-4.23,6.09-7.46,6.54-12.09-11.06-34.44,15.66-59.51,46.59-70.31,4.57-1.3,8.23-3.76,9.1-8.58,2.39-8.38,4.93-16.42,7.13-24.13,3.03-10.08,7.47-25.41,10.38-35.11,2.45-6.01,1.66-10.94,1.1-16.89-.03-.71,0-1.14.12-1.23,3.14,5,7.77,15.75,10.9,21.98,11.21,19,10.92,41.45-9.21,54.68-5.26,3.82-12.61,7.97-12.63,15.13,1.38,4.92,9.89-1.09,13.33-2.37,9.38-5.02,18.5-12.05,23.73-21.41,6.64-12.28,5.28-28.12-.6-41.54-4.28-9.51-10.96-17.77-14.38-27.7-11.05-24.51,4.14-47.6,24.22-61.18,3.72-3.03,6.86-4.14,7.77-7.28-.82-3.42-6.72-1.33-9.15-.19-13.78,6.9-22.06,18.3-29.8,31.42-.4.76-2.66,3.83-3.12,2.19,2.11-15.69,11.49-27,23.4-36.7,4.42-3.4,9.36-7.84,9.23-13.81-1.52-9.54-.03-21.1-8.21-27.95-4.06-3.01-15.34-13.07-16.71-3.12-1.15,5.36-1.06,10.76.71,16.09.55,2.01,2.47,4.98,1.19,6.81-.73.71-2.54.86-5.11.89-5.9.13-12.65.14-18.27.28-13.74-.07-27.61,6.28-34.19,18.88-2.58,4.61-3.57,8.56-4.9,13.45-8.54,31.01-22.38,81.22-30.89,111.96-10.15-28.94-27.7-90.85-33.89-109.01-3.13-8.04-4.93-20.51-10.02-26.38-20.01-15.03-37.72,18.32-50.17,30.02-6.91,7.47-14.65,14.08-22.88,20.05-3.51,2.67-5.96,6.23-7.48,10.33-5.24,13.77-10.81,27.22-16.8,40.63-6,12.71-13.46,30.99-19.45,42.41-.92-1.73-2.07-7.03-4.66-15.37-11.89-37.64-29.18-105.32-37.1-122.06-13.6-22.85-43.7-17.83-66.28-17.95-14.06,1.78-3.52-15.47-27.62-31.74-15.16-10.15-42.66-18.24-59.53-9.88-5.17,9.21,6.54,35.12,12.81,43.06,11.23,15.39,33.49,25.74,51.21,17.84,5.72-5.23-12.01-24.3-16.29-28.56-3.55-3.3-7.52-6.27-11.35-9.18-12.72-9.46,31.72,7.74,35.76,36.34,1.44,11.71,14.26,15.99,21.04,23.36-1.1.22-3.17-1.13-4.35-1.56-4.06-1.96-19.7-9.93-15.04-1.5,6.73,6.63,19.47,10.43,26.04,17.77,12.89,14.82,16.43,37.18,10.93,55.82-3.18,11.44-11.57,20.23-18.2,30-15.06,17.53-20,47.31,1.84,61.38,6.78,4.3,16.05,9,24.14,7.38,2.43-3.89-4.12-9.54-7.94-11.32-5.76-2.63-11.14-6.43-14.57-11.92-18.22-30.2,27.13-48.47,23.95-87.54-.18-6.33-1.34-12.75-3.39-18.8-2.25-6.56-6.21-12.8-6.06-19.87-.63-7.16-.62-15.01,5.16-20.29,4.18-3.74,11.34-8.46,16.94-7.2,1.84.94,2.27,3.37,2.46,5.36.6,7.57-.84,16.07-7.4,20.61-2.82,2.61-9.17,2.43-9.77,6.77,13.1,27.33,11.21,55.19-5.29,81.04-.78,1.97-.16,3.14.68,5.81,1.58,5.07,3.14,9.65,5.27,16.38,7.17,20.14,12.63,43.38,17.72,52.61,2.3,1.66,5.68,2.72,8.33,4.09,5.79,2.84,8.62,6.13,12.61,10.69,1.06,1.24,2.89,3.17,4.47,2.94,4.3-2.77.73-18.11,2.46-24.56,1.83-8.12-2.89-12.07-8.02-17.23-6.72-7.93-3.82-19.72,1.62-27.52,5.67-8.73,18.58,11.7,18.35,16.67,1.1,4.83-2.72,14.44,5.15,11.85,5.06-.88,13.61-5.13,17.97-1.62,1.61,2.68-.07,6.7-.75,9.62-2.5,8.75-9.62,15.62-18.77,16.95-8.71.57-8.17,4.48-7.67,12.14.36,4.33-1.81,9.68-1.13,13.54.62,2.76,3.32,4.46,5.54,6.07,6.75,4.82,10.83,12.27,10.46,20.5-.05,6-4.31,11.28-9.23,14.15-7.69,3.47-2.49,10.59-2.84,16.5,0,3.84-5.2,5.92-7.96,3.58-2.48-2.19-2.98-6.62-3.94-9.89-.76-3.9-2.29-7.42-6.62-7.64-3.58-.29-8.04-1.82-10.06,1.18-1.42,5.01,1.03,11.18-.48,16.16-3.01,7.46-9.42,1.31-9.94-4.27-2.53-7.22-4.42-20.86-14.07-20.67-3.05.27-6.92.35-9.17,2.65-3.08,5,8.75,21.82,1.46,25.39-3.83,1.18-8.06-1.61-11.19-3.74-6.19-4.32-13.09-7.35-20.5-9.03-12.9-2.91,2.52,4.63,4.79,7.95,5.76,5.63-1.64,5.49-7.74,6.43-4.67,1.17-17.56,2.07-16.68,7.53,13.48,10.78,52.06,11.01,73.67,12.36,5.49-.09-1.46,2.02,4.04,2.65,47.12,3.64,93.37,4.29,140.42,4.44,48.64-.55,96.29.14,143.29-7.14,22.03-.65,96.34-11.64,40.32-20.28-1.55-.16-4.36-.7-4.88-2.06l-.03-.09ZM468.67,100.39c-.33.36-1.14.18-1.65.01-4.01-1.3-5.33-5.42-6.8-9.3-.15-.49-.84-2.03.14-1.49,3.08,2.42,5.61,5.36,7.92,9.01.29.49.69,1.24.45,1.68l-.06.08ZM59.37,98.01c-.71,1.17-2.33,2.14-3.82,2.21-3.59,0-8.5-.8-11.39-3.07.24-.5,6.25.16,8.01.11,1.65.07,3.26.14,4.56.2,1.7.11,2.85-.02,2.67.48l-.03.07ZM310.17,395.47c-.46.83,1.31,2.37,1.05,3.01-.14.19-.42.22-.69.23-1.71.02-5.32,0-10.05,0-19.75-.14-56.83.18-64.7-.18-.41-.23.97-1.28,1.32-1.94.51-.9-1.31-.53-1.96-.37-4.44,1.1-9.01,2.22-13.56,2.61-2.35.25-4.99-.34-4.25-3.35,14.76-42.41,28.63-86.43,50.63-153.44,3.69-11.29,6.43-19.7,7.43-22.76.5-1.39.35-1.91,1.22.8,4.84,15.29,12.83,39.61,16.68,52.02,11.72,37.62,27.29,86.39,40.11,125.14.9,2.85-4.34,1.77-5.98,1.81-4.69-.38-9.13-1.62-13.59-3.06-1.01-.22-2.81-1.13-3.63-.55l-.03.04Z"/>
      <path class="cls-1" d="M372.98,378.36c13.24,4.37,28.63,1.32,39.26-7.63,2.17-1.43,4.68-1.38,7.08-.55,14.51,4.98,31.11,6.8,45.92,3.02,8.92-2.03,11.72-7.56,9.24-16.28-4.29-16.75-16.23-31.55-32.84-37.88-19.57-7.83-46.31.83-53.33,21.72-1.14,4.07-3.72,6.82-7.42,8.52-5.63,2.85-10.58,6.93-13.5,12.26-3.76,6.54-2.2,14.13,5.4,16.75l.18.07Z"/>
      <path class="cls-1" d="M133.17,372.68c1.84.41,3.45,1.55,4.97,2.67,3.91,2.99,8.51,4.91,13.36,5.83,7.75,1.4,21.91,1.15,27.19-5.45,2.19-3.01,1.83-7.15.52-10.48-2.3-5.83-7.2-9.7-13.07-12.26-6.15-2.41-6.65-6.55-9.33-11.92-6.46-11.45-20.04-17.7-32.92-17.28-16.56.19-31.64,10.88-40.06,24.7-3.12,5.54-6.24,11.85-5.86,18.37.73,7.1,9.76,8.6,15.85,9.76,11.44,1.88,22.45.06,33.73-3.5,1.77-.52,3.69-.87,5.44-.48l.17.04Z"/>
      <path class="cls-1" d="M493.39,66.31c-9.52,6.07-16.78,18.53-18.07,29.82-1.17,9.49,1.03,17.72,4.06,15.92,1.66-1.54,2.97-4.83,4.33-6.99,7.65-13.13,20.51-25.13,35.86-28.18,1.04.41-2.03,2.33-2.56,2.79-5.85,4.19-11.58,8.68-16.78,13.8-1.14,1.2-4.37,3.87-1.5,4.73,1.43.49,4.62.44,6.54.64,1.25.13,1.94.33,1.9.6-.02.21-.45.45-1.17.71-3.92,1.49-8.79,1.34-12.4,3.19-3.48,1.95-6.52,5.9-7.34,9.76-.34,2.61,2.88,3.97,5.27,4.45,24.32,5.5,47.27-10.87,55.83-33.3,2.83-7.45,4.54-15.29,5.22-23.22.38-3.54-1.42-6.15-5.02-6.51-18.96-1.67-38.12.48-54.01,11.68l-.15.11Z"/>
      <path class="cls-1" d="M222.81,161.53c10.94-10.79,20.12-12.66,32.74-26.2,17.16-16.48,31.86-48.43,59.08-41.29,1.99.35,5.71,2.39,6.87.51.52-1.74-1.17-4.14-2.87-6.27-2.22-2.55-5.12-4.4-8.46-5.4-31.26-6.67-43.82,30.73-64.73,47.46-2.93,1.1-2.77-3.94-3.15-5.92-1.22-10.62-7.36-15.43-17.47-19.19-2.12-.71-4.76-1.36-6.45.26-1.35,1.26-1.6,3.94-1.56,6.56.02,3.47.55,6.97,1.62,10.02,5.21,14.58,22.8,11.7,16.87,17.16-6.27,5.41-29.46,18.31-31.98,38.92-.91,5.01-.66,10.4,1.33,14.74.94,2.17,2.24,3.74,3.43,3.92,1.45.25,2.31-1.3,2.71-2.53,1.61-5.02-.66-10.55,2-18.07,1.9-5.56,5.8-10.72,9.88-14.56l.14-.13Z"/>
      <path class="cls-1" d="M382.04,332.78c5.86-8.03,12.95-15,22.01-19.34,4.36-2.04,6.52-3.05,7.62-8.29,1.41-4.85,3.69-12.68,5.18-17.83.67-2.26.87-3.51,0-3.67-22.82,6.66-46.85,23.54-47.29,49.19.22,3.81.73,9.31,4.41,11.09,1.51.62,3.23-.12,4.08-1.46,1.21-1.75,1.06-4.18,2.02-6.31.47-1.15,1.12-2.2,1.87-3.22l.12-.16Z"/>
      <path class="cls-1" d="M68.13,139.42c-1.68-3.53-16-4.26-19.79-4.43-1.18-.12-2.93.11-3.8-.52.09-.78,2.5-1.3,5.1-1.91,5.71-1.35,11.42-.39,17.05-.58,4.22-1.05-2.45-5.44-4.36-6.2-17.27-6.54-36.71.06-49.92,11.98-1.18,1.07-2.73,2.72-2.57,4.16.32,4.06,20.16,7.82,24.31,8.15,11.06,1.17,22.82-.08,31.7-6.92,1.09-.89,2.61-2.17,2.32-3.63l-.03-.11Z"/>
      <path class="cls-1" d="M503.94,124.18c-5.24-.07-10.74,1.04-14.85,3.88-.92.69-2.71,1.86-2.04,3.04.84.83,2.7.73,3.95.78,5.01-.06,9.94.23,14.44,2.13,2.98,1.28-.41,1.5-2.8,1.65-4.3.28-10.74.68-14.6.95-4.37.22-4.07,1.84-1.4,4.8,10.66,12.03,35.01,11.44,51.3,6.64,7.25-1.85,2.49-5.93-1.48-9.54-8.96-8.18-19.85-14.14-32.31-14.32h-.21Z"/>
      <path class="cls-1" d="M102.79,210.39c.58-.03,1.2-.72,1.81-1.86,10.01-21.68,2.96-47.59-15.76-60.93-8.55-6.38-3.08,7.02-2.59,10.68,3.33,13.15,7.23,26.01,11.18,39.15.92,2.98,1.86,5.95,2.84,8.92.49,1.36,1.19,3.89,2.44,4.04h.08Z"/>
      <path class="cls-1" d="M120.9,48.2c.32.11.59-.37.88-1.28.25-.8.53-1.96.79-2.88,5.85-21.99,33.55-16.8,19.9-21.57-10.48-3.32-15.01-6.88-18.65-17.48-.81-2.09-2.48-7.81-4.51-3.3-3.58,10.22-8.19,16.8-18.36,20.13-6.59,2.21-5.09,3.24.62,4.96,9.56,3.02,13.59,6.67,16.99,16.13.63,1.52,1.28,4.36,2.29,5.27l.05.02Z"/>
      <path class="cls-1" d="M324.74,108.89c.62.91,2.81,1.43,4.14,1.74,10.28,2.41,20.25-1.49,25.97-9.7,1.66-2.79,5-5.97,4.04-9.28-1.05-2.23-4.09-2.97-6.35-3.64-7.23-1.94-15.51-.83-21.37,3.63-2.95,2.2-5.53,5.29-7.16,8.6-.46,1.12-.86,1.95.03,2.37.9.22,1.87-.13,2.82-.39,2.54-.82,6.14-2.19,7.88-2.74.64-.21,2.02-.66.85.25-1.35,1.06-5.69,3.98-8.58,6.05-.93.8-2.73,1.69-2.31,3.04l.05.08Z"/>
      <path class="cls-1" d="M170.2,74.71c1.09-.5,1.79-2.55,2.47-3.69,4.9-10.61,18.37-8.25,8.95-12.48-3.92-1.9-6.91-4.93-8.92-8.78-1.55-2.87-2.48-5.14-4.45-.86-1.81,3.92-4.55,7.1-8.24,9.12-1.13.78-3.23,1.37-3.53,2.73.27,1.23,2.35,1.92,3.45,2.65,3.62,1.94,6.11,4.86,7.85,8.34.62.98,1.17,2.9,2.34,2.98l.08-.02Z"/>
      <path class="cls-1" d="M164.02,273.74c-1.09.34-1.59,1.94-1.97,3.02-1.31,3.96-1.72,8.36.03,11.9,1.12,2.07,3.79,5.97,6.38,5.61,1.28-.44,1.7-2.22,1.94-3.5,1-5.9-1.01-11.29-4.15-15.61-.53-.7-1.31-1.55-2.12-1.44l-.11.02Z"/>
      <path class="cls-1" d="M193.07,300.78c-2.33-1.57-6.57-.27-9.04.71-3.93,1.72-6.99,7.64-9.84,11.28-1.4,2.09.28,1.75,1.73,1.33,6-1.74,12.97-5.16,16.51-10.06.62-.88,1.45-2.24.73-3.17l-.08-.09Z"/>
      <path class="cls-1" d="M129.24,136.84c-.95-.31-2.13.44-2.99.97-4.02,2.56-6.43,4.61-7.72,9.63-.26,1.1-.53,2.78.48,3.46.59.37,1.48.2,2.17-.05,4.98-1.93,8.56-5.99,8.95-11.21.06-.93.08-2.28-.79-2.75l-.12-.05Z"/>
    </g>
  </g>
</svg>