<?xml version="1.0" encoding="UTF-8"?>
<svg id="Capa_2" data-name="Capa 2" xmlns="http://www.w3.org/2000/svg" viewBox="0 0 693.33 254.52">
  <defs>
    <style>
      .cls-1 {
        fill: #fff;
      }
    </style>
  </defs>
  <g id="Capa_1-2" data-name="Capa 1">
    <g>
      <g>
        <g>
          <path class="cls-1" d="M377.56,97.48c-.1-2.82-.23-5.6-.36-8.29-.15-3.09-.3-6.29-.41-9.65,3.04-.16,6.37-.33,7-.08.94.38,1.52.85,1.93,1.57.65,1.57.84,6.22.32,7.68-.46,1.31-.95,1.43-1.86,1.64-.17.04-.35.08-.54.14-.77.21-1.98.29-2.33.31-.09,0-.14,0-.14,0h-.33s.35,6.5.35,6.5l-3.63.18ZM380.81,87.75h.28c.14.01.27,0,.39,0,1.06-.06,1.41-.49,1.67-.89.22-.33.3-.98.27-2.1-.03-.99-.06-2.01-1.15-2.37-.14-.05-.27-.05-.92-.05-.2,0-.44,0-.75,0h-.36s.56,5.41.56,5.41Z"/>
          <path class="cls-1" d="M396.51,96.47c-1.56-3.23-2.13-4.66-2.89-6.95l-.07-.21-1.79-.09-.02.32c-.01.21-.3,4.68-.38,5.95-.54-.03-.9-.04-1.2-.05-.25,0-.46-.02-.69-.03-.35-.02-.77-.05-1.61-.11.09-2,.17-3.93.25-5.8.16-4.06.31-7.89.63-12.06.75,0,1.38.03,1.97.06.51.03.92.06,1.37.09.18.01.36.03.55.04,1.7.13,3.68.62,4.28,1.41,1.42,1.93,1.38,3.77,1.17,6.16l-.02.19c-.08.78-.13,1.3-.51,2.26l-1.08,1.09,3.08,6.19-3.04,1.55ZM392.17,80.74c-.12.11-.19.18-.23,5.47v.24s.23.07.23.07c.27.08.51.12.73.13.94.05,1.31-.52,1.37-.84.57-2.09.44-3.67.14-4.45-.13-.32-.45-.71-1.29-.75-.31-.02-.58.02-.71.04h-.03s-.11,0-.11,0l-.1.1Z"/>
          <path class="cls-1" d="M401.63,96.87c-.37-4.13-.54-8.33-.71-12.4-.07-1.67-.14-3.39-.22-5.09.89-.09,1.7-.17,2.47-.24,2.28-.23,4.26-.43,7.03-.64.07.98.14,1.62.25,2.7.02.24.05.5.08.78l-5.85.46.08,3.55h.32c.52,0,1.12-.02,1.76-.05.85-.03,1.79-.07,2.68-.05.14,1.24.2,1.92.03,3.25l-4.79.28.03.33c.05.5.09.97.14,1.44.04.48.09.96.14,1.46l.03.32.32-.04c1.09-.12,2.29-.22,3.37-.28.9-.05,1.69-.07,2.32-.06-.03.64-.03,1.15-.03,1.63,0,.57,0,1.11-.04,1.83-2.22.26-4.1.4-6.27.56-.99.07-2.01.15-3.14.24Z"/>
          <path class="cls-1" d="M411.99,91.41h.04c.36-.02.72-.03,1.21-.04.12,0,.25,0,.38,0,1.1-.02,2.46-.04,3.05-1.21v-.02s.02-.03.02-.03c.42-1.35-.27-2.42-.5-2.77-.29-.46-.76-.94-1.17-1.36-.13-.14-.27-.27-.38-.4-.87-.98-1.55-1.82-1.63-2.98-.15-1.83,0-3.86,2.17-5.15,1.04-.61,2.65-.95,5.37-1.12l.54,3.32c-.38.05-.69.11-.96.16-.2.04-.38.07-.52.09-.46.06-1.23.32-1.54.75-.45.64-.77,1.92-.05,2.79.71.83,1.29,1.76,1.84,2.63,1.79,2.95,1.61,5.05-.64,7.45-1.54,1.15-2.88,1.14-6.43,1.11-.27,0-.56,0-.86,0l.07-3.21Z"/>
          <path class="cls-1" d="M422.9,95.92c-.37-4.13-.54-8.33-.71-12.4-.07-1.67-.14-3.39-.22-5.09.89-.09,1.7-.17,2.47-.24,2.28-.23,4.26-.43,7.03-.64.07.98.14,1.62.25,2.7.02.24.05.5.08.78l-5.85.46.08,3.55h.32c.52,0,1.12-.02,1.76-.05.85-.03,1.79-.07,2.68-.05.14,1.24.2,1.92.03,3.25l-4.79.28.03.33c.05.5.09.97.14,1.44.04.48.09.96.14,1.46l.03.32.32-.04c1.09-.12,2.29-.22,3.37-.28.9-.05,1.69-.07,2.32-.06-.03.64-.03,1.15-.03,1.63,0,.57,0,1.11-.04,1.83-2.22.26-4.1.4-6.27.56-.99.07-2.01.15-3.14.24Z"/>
          <path class="cls-1" d="M433.58,93.81l.24-17.86,3.43.02c.53.92,1.32,2.63,2.24,4.59.82,1.75,1.74,3.74,2.6,5.41l.61-.14.17-9.77,3.5.14c0,6.64-.04,11.49-.26,17.65-.47.02-.87.02-1.26.02s-.72-.01-1.07-.03c-.35-.01-.71-.02-1.16-.03-.28-.54-.74-1.41-1.32-2.49-1.07-1.99-2.4-4.46-3.42-6.56l-.61.15v.86c.06,2.72.12,6.38.07,8.05l-3.76-.02Z"/>
          <path class="cls-1" d="M452.09,94.28c.02-1.34.01-2.64,0-4.26,0-.43,0-.89-.01-1.38,0-.6,0-1.16,0-1.68,0-2.28,0-3.93-.13-6.43l-.02-.33-.33.03c-.63.05-1.23.07-2,.08-.24,0-.49,0-.76.01-.23,0-.48,0-.75.01,0-.86-.01-1.52-.03-2.11-.02-.53-.03-1-.02-1.51,1.55-.08,3.01-.12,4.68-.15,1.04-.02,2.06-.02,3.14-.03,1.13,0,2.3-.02,3.62-.04.05.68.04,1.23.04,1.96,0,.47,0,1,0,1.68-.56.02-1.04.02-1.5.03-.55,0-1.11.02-1.81.04h-.32s0,.33,0,.33c.04,1.39.04,2.62.05,3.81,0,.77,0,1.51.02,2.26,0,.45.02.94.03,1.47.03,1.67.07,3.74.08,6.19l-3.98.02Z"/>
          <path class="cls-1" d="M460.1,91.55h.04c.36,0,.72,0,1.21.01.12,0,.25,0,.38,0,1.09.03,2.46.07,3.11-1.07v-.02s.02-.03.02-.03c.49-1.33-.16-2.43-.38-2.79-.27-.48-.71-.97-1.11-1.41-.13-.14-.25-.28-.37-.41-.83-1.01-1.47-1.89-1.49-3.05-.07-1.83.17-3.86,2.41-5.04,1.06-.56,2.69-.83,5.42-.87l.39,3.34c-.38.03-.7.08-.96.12-.21.03-.38.06-.53.06-.46.04-1.24.26-1.57.68-.48.61-.85,1.88-.18,2.78.67.87,1.21,1.82,1.71,2.72,1.65,3.03,1.38,5.11-.98,7.41-1.59,1.07-2.93,1-6.47.82-.27-.01-.56-.03-.86-.04l.22-3.2Z"/>
        </g>
        <g>
          <g>
            <g>
              <path class="cls-1" d="M211.13,65.94c-.2-11.55-.12-23.68.25-38.18v-.45s.42-.18.42-.18c.45-.19,1.21-.26,2.72-.23.36,0,.73.02,1.09.03.32.01.63.02.91.03h.7s-.01.72-.01.72c-.07,3.23-.15,7.19-.14,12.17,1.03-.58,2.16-.88,3.34-.85.78.02,1.56.17,2.32.46l.07.03.07.04c3.26,2.17,3.29,4.55,3.35,8.15,0,.42.01.85.02,1.32.05,1.93.09,3.86.13,5.8.08,3.58.16,7.28.28,10.95l.02.74-.74-.02c-.32,0-.69-.02-1.1-.03-.5-.02-1.05-.04-1.64-.05s-1.14-.02-1.65-.01h-.68s-.81-18.85-.81-18.85c-.04-1.01-.31-2.21-1.38-2.23-.7-.01-1.49.45-1.87.93-.06.84-.05,2.04-.04,3.65,0,1.08.01,2.3,0,3.72,0,1.26.01,2.45.02,3.62.02,2.82.04,5.49-.03,8.62v.7s-.72-.01-.72-.01c-1.46-.03-3.76.07-4.13.11l-.76.08v-.77Z"/>
              <path class="cls-1" d="M235.92,55.52c-3.24.69-5.52.57-6.96-.34-3.1-1.94-4.37-7.38-5.4-12.77-.12-.62-.26-1.27-.41-1.95-.89-4.08-2-9.16,1.52-10.96l.04-.02.47-.16c1.12-.39,2.39-.82,3.66-1.09,2.52-.53,4.32-.23,5.52.94,1.91,1.85,2.49,5.2,3.05,8.44.15.84.28,1.64.44,2.39v.03s.19,1.55.19,1.55l-.53.13c-1.02.25-2.12.49-3.3.75-1.46.32-2.96.65-4.26.99.09.37.18.77.27,1.19.38,1.72.84,3.84,1.8,4.6,1.11.21,2.37.15,3.96-.18.69-.15,1.37-.33,1.87-.47l.63-.18,1.34,6.07-.54.17c-1.23.38-2.33.68-3.36.89ZM228.68,37.25c.41-.06.83-.14,1.18-.21.29-.06.59-.13.89-.2.32-.07.65-.15.98-.22.06-.01.12-.02.18-.04l-.51-2.59c-.18-.83-1.11-1.09-1.93-.91-.48.1-.81.3-1,.61-.5.82-.1,2.36.19,3.48,0,.02.01.05.02.07Z"/>
              <path class="cls-1" d="M201.31,63.34c-2.28,0-4.38-.66-5.35-1.68-.6-.7-1.29-1.67-1.4-3.17-.39-6.16-.31-11.68-.25-15.33v-.98s.16-15.32.16-15.32l.62-.02c.51-.02,1.12-.05,1.79-.08,1.12-.06,2.39-.12,3.71-.15l.7-.02-.04.7c-.09,1.59-.06,2.92-.02,4.34.03,1.22.06,2.47,0,3.9h.07c.73,0,1.59-.02,2.5-.05,1.05-.03,2.24-.06,3.42-.06h.63l.02.63c.1,2.44.09,3.49,0,4.33l-.06.53-.53.04c-1.43.12-2.59.19-3.62.25-.87.05-1.65.1-2.46.17l-.13,12.98c-.01.89.21,1.57.65,2.01.49.49,1.13.6,1.59.6.72,0,1.47-.26,2.01-.68,2.39-1.87,3.25-3,4.68-4.87.33-.43.68-.89,1.09-1.41l.47-.6.57.61c.65.7,1.47,1.57,2.37,2.95l.23.35-.22.35c-1.9,3-3.06,4.64-5.47,6.76-2.1,1.87-4.84,2.91-7.72,2.91Z"/>
            </g>
            <g>
              <path class="cls-1" d="M348.81,58.91l16.06-52.25c.11-.59.6-.85,1.47-.79.3.02.77.07,1.33.12.88.08,2,.18,3.16.27,1.63.13,2.86.19,3.76.19h.82s.19.8.19.8c2.44,10.38,4.48,23.14,6.63,36.64,1.26,7.89,2.56,16.05,3.97,23.85l.24,1.32-12.32-.95-.19-.7c-.62-2.27-.94-5.27-1.26-8.17-.15-1.35-.29-2.63-.45-3.81-.98-.13-2.05-.24-3.24-.33-1.75-.14-3.55-.22-5.3-.3-.88-.04-1.76-.08-2.63-.13l-4.16,12.11-.8-.06c-.91-.07-1.84-.18-2.74-.3-.89-.11-1.8-.22-2.68-.29-.96-.07-1.79-.09-2.53-.04l-1.48.1,2.14-7.27ZM368.84,27.82c-1.73,5.93-3.6,13.36-4.31,16.22l6.18.42-.09-.85c-.53-5.28-1.08-10.7-1.79-15.79Z"/>
              <path class="cls-1" d="M484.15,40.78l-12.1-22.21.88-.48c.06-.03,5.67-3.08,8-4.3l.83-.43.49.8c1.14,1.85,2.47,4.45,4.02,7.45,1.49,2.89,3.16,6.14,4.98,9.37,3.26-2.29,6.35-5.01,9.11-7.44,1.86-1.64,3.61-3.19,5.11-4.32l.66-.5,7.34,6.71-18.38,16.5-6.25,32.92-.67.13c-.8.15-1.72.1-2.88-.17-.78-.18-1.59-.43-2.37-.68-.77-.24-1.57-.49-2.33-.67-.61-.14-1.14-.21-1.6-.23l-1.18-.03,6.35-32.43Z"/>
              <path class="cls-1" d="M261.67,73.67v-.06c-.32.07-.68.15-1.08.24-.72.16-1.55.35-2.35.51l-1.01.2-1.99-9.92,3.91-.79c-2.32-11.22-5.82-29.06-7.7-38.73-.74.09-1.31.21-1.72.29-.74.15-1.28.26-1.73-.23-.17-.18-.27-.41-.29-.65-.12-.47-.25-.97-.37-1.47-.73-2.86-1.49-5.82-1.52-7.31v-.58s.48-.31.48-.31c.58-.36,1.58-.61,2.31-.76.53-.11,1.1-.19,1.67-.26,9.39-1.88,23.76-1.61,28.93,6.16l.04.06.03.07c5.55,11.85,6.88,22.9,7.85,34.11.83,9.69-14.86,17.27-24.48,19.21l-1.01.2ZM265.26,24.17c-1.44-.19-2.64,1.1-2.36,2.52.35,1.76.77,3.72,1.17,5.54.35,1.63.69,3.21.96,4.54.76,3.77,1.39,7.61,1.99,11.32.54,3.27,1.05,6.41,1.64,9.49.24,1.27,1.56,2.03,2.78,1.61l2.18-.75c2.17-1.44,4.24-4.38,3.69-7.47-.25-1.42-.48-3-.72-4.67-1.1-7.46-2.6-17.67-6.64-20.59-1.25-.89-3.08-1.32-4.69-1.53Z"/>
              <path class="cls-1" d="M347.28,58.95c-5.3.56-8.94.04-11.12-1.59-4.67-3.46-5.84-12.01-6.64-20.47-.09-.96-.21-1.99-.35-3.07-.78-6.41-1.75-14.38,4.17-16.63l.07-.03.78-.18c1.86-.42,3.96-.9,6.05-1.12,4.12-.44,6.97.31,8.71,2.28,2.76,3.13,3.17,8.38,3.55,13.45.1,1.32.2,2.56.33,3.74v.04s.05,2.41.05,2.41l-.87.12c-1.67.23-3.49.44-5.41.65-2.39.27-4.85.54-6.99.88.09.58.17,1.21.25,1.87.33,2.7.74,6.04,2.16,7.34,1.75.49,3.78.6,6.37.32,1.14-.12,2.24-.3,3.08-.44l1.04-.18,1.19,9.54-.9.18c-2.04.4-3.85.68-5.53.86ZM338.56,29.75c.67-.02,1.36-.09,1.93-.15.47-.05.96-.11,1.46-.17.53-.06,1.07-.13,1.61-.18.1-.01.19-.02.29-.03l-.41-4.06c-.15-1.3-1.6-1.84-2.95-1.7-.79.08-1.35.34-1.7.79-.94,1.18-.54,3.61-.24,5.38,0,.04.01.08.02.12Z"/>
              <path class="cls-1" d="M421.43,52.62c-1-3.69-1.65-7.72-2.27-11.61-1.03-6.43-2.1-13.08-4.79-18.54-.5-.47-1.03-.64-1.63-.53s-1.35.52-2.12,1.19l-.31.9c.79,3.86,1.74,7.83,2.65,11.67,1.4,5.86,2.84,11.93,3.76,17.71l.14.91-.89.22c-.64.16-1.42.32-2.34.49-2.07.38-4.75.76-7.16,1.02l-.85.09-.22-.83c-1.09-4.1-1.88-8.56-2.64-12.87-1.01-5.7-2.05-11.6-3.83-17.06-.25-.16-.65-.22-1.09-.14-.41.07-.8.26-.99.47l-.1.11-.12.07c-1.02.62-1.64,1.47-2.12,2.91l5.21,28.76-10.37,1.79-.2-.94c-2.78-13.25-5.89-28.52-7.92-41.29l-.14-.88.86-.24c1.23-.34,2.72-.61,4.3-.89s3.12-.57,4.52-.93l.97-.25,1.1,4.36c1.95-1.98,4.77-4.68,8.08-5.28,1.76-.32,3.48-.02,5.13.88l.04.02.04.03c.33.23.62.45.87.65.19.15.41.32.56.41.03-.03.08-.08.13-.15,1.83-2.32,4.46-3.89,7.4-4.43.59-.11,1.19-.17,1.78-.19,2.41-.4,4.67,1.04,6.37,4.06l.03.05.02.05c3.24,7.54,4.85,16.55,6.4,25.27.65,3.63,1.32,7.39,2.09,10.95l.22,1.01-1.02.18c-.72.13-1.55.25-2.44.37-1.01.14-2.06.29-3.11.47s-1.99.41-2.75.65l-.99.31-.27-1Z"/>
              <path class="cls-1" d="M466.26,43.72c-3.16,0-6.98-.03-8.18-.1l-.87-.05v-.87c0-.25,0-.71,0-1.29.02-1.65.04-4.4,0-5.63l-.04-.96h.97c.33,0,.74,0,1.19.01.52,0,1.09.02,1.64.02.17,0,.32,0,.47,0,.02-2.99.05-6.28.08-9.54.06-6.64.11-12.92.11-16.45l-2.62-5.16.49-.48c2.02-1.95,6.4-3.21,6.86-3.21,0,0,1.89,2.24,2.24,2.89v.02c.5.9,1.59,1.29,2.52.89,2.88-1.24,7.82-2.13,9.62-2.47.47-.09.91-.17,1.29-.25l.94-.19.16.94c.1.59.22,1.28.35,1.99.33,1.83.66,3.72.77,4.82l-.27.03c-4.66.59-9.02,2.57-12.54,5.68h0c-.06,7.55-.06,14.12-.06,20.45h4.41l.07.85c.2,2.51.2,5.57.2,7.04v.89l-.89.04c-1.45.06-4.94.1-8.92.1Z"/>
              <path class="cls-1" d="M322.22,71.76c-.79.02-1.52-.06-2.22-.13-.35-.04-.71-.08-1.07-.1-4.66-.23-8.12-8.75-12.16-19.85-.39-1.08-.77-2.12-1.13-3.08-.63.02-1.36.05-2.07.09.03.97.06,2,.09,3.05.19,6.24.4,13.32.36,18.69v1.05s-1.06.03-1.06.03c-1.17.03-2.28.14-3.46.26-1.3.13-2.64.26-4.16.3-.49.01-1.01.02-1.54.01l-1.04-.02-.03-1.04c-.65-19.83-.95-42.01-1.08-54.13-2.11,0-5.43.03-8.02.11l-1.09.03-.03-1.09c0-.19-.13-7.47-.14-7.71l-.03-1.09,1.09-.03c1.6-.05,3.16-.15,4.54-.24,1.16-.08,2.26-.15,3.2-.18.57-.02,1.05-.01,1.47,0,.92.06,1.97.07,3.32.03,1.11-.03,2.26-.09,3.48-.15,1.24-.06,2.51-.13,3.77-.16,5.13-.15,10.19.15,12.39,3.27,2.02,2.81,4.47,7.01,4.67,11,.04.76.09,1.52.14,2.26.42,6.76.79,12.59-1,19.13l-.03.1-.05.09c-.56,1.13-1.64,3-3.19,4.1.37.88.74,1.8,1.13,2.77,1.57,3.87,4.48,11.07,5.99,11.02.04,0,.08-.02.14-.06,3.63-2.42,4.48-3.7,8.56-9.84l1.18-1.78.94.94c.29.29.59.58.9.87,1.41,1.34,2.88,2.72,3.52,4.55l.17.48-.26.44c-7.83,13.13-12.14,15.9-16.19,16.02ZM302.85,16.99c.15,3.38.22,7.22.29,10.95.07,3.73.14,7.57.29,11,.08-.01.17-.03.26-.04.66-.11,1.34-.22,1.97-.28,1.95-.24,3.27-1.25,3.9-3.01.47-3.4.37-6.32.26-9.4-.02-.58-.04-1.16-.06-1.74-.09-3.08-.94-5.54-2.18-6.26l-.21-.12-.14-.2c-.5-.72-1.6-.98-3.92-.92-.15,0-.31,0-.46.02Z"/>
              <path class="cls-1" d="M441.31,67.22c-2.65-.39-5.13-1.26-8.03-2.81-5.36-2.93-7.81-7.28-7.48-13.31.29-5.54,1.09-11.19,4.98-15.01,1.8-1.72,3.28-2.46,6.03-3.08-1.11-.79-2.05-1.69-2.98-2.82-2.02-2.29-3.12-5.99-2.79-9.4.2-1.8.46-3.73,1.34-5.9,1.19-2.76,2.32-3.96,3.22-4.92.26-.27.5-.53.73-.81,1.3-1.47,3.55-3.35,7-4.17,2.41-.57,4.71-.68,7.04-.33l.79.12c2.84.42,8.13,1.21,7.38,8.89-.13,1.35-.88,2.61-2.09,3.56-1.45,1.13-3.35,1.65-5.09,1.39-1.14-.17-3.67-.94-4.54-4.38-2.98,1.75-5.07,4.82-5.39,6.96s.2,3.29,1.38,5.05c2.24,3.54,5.07,4.06,8.34,4.67l1.29.24.08.73c.1.91-.16,2.54-.54,4.73-.17.98-.34,2-.35,2.39l-.02,1.04-1.04-.07c-4.29-.3-9.11-.11-12.34,3.52-2.03,2.3-2.6,7.73-1.09,10.37,1.26,2.13,3.57,3.6,6.32,4.01,1.62.24,3.26.11,4.76-.38,3.27-1.07,5.98-2.29,11.24-8.36l.84-.97.73,1.06c.17.25.36.51.56.78.85,1.18,1.92,2.66,2.65,4.45l.22.53-.35.45c-4.86,6.34-8.4,8.6-9.91,9.56l-.26.17c-3.33,2.21-6.28,2.25-8.04,2.28h-.22c-1.57.04-3-.04-4.37-.24Z"/>
            </g>
          </g>
          <g>
            <path class="cls-1" d="M503.25.91h-1.08c-.18,0-.33-.15-.33-.33v-.25c0-.18.15-.33.33-.33h3.83c.18,0,.33.15.33.33v.25c0,.18-.15.33-.33.33h-1.08c-.18,0-.33.15-.33.33v4.1c0,.18-.15.33-.33.33h-.35c-.18,0-.33-.15-.33-.33V1.24c0-.18-.15-.33-.33-.33Z"/>
            <path class="cls-1" d="M507.69,0h.98c.14,0,.26.08.31.21l1.13,2.95c.11.28.51.28.62,0l1.14-2.96c.05-.13.17-.21.31-.21h.96c.18,0,.33.15.33.33v5.01c0,.18-.15.33-.33.33h-.3c-.18,0-.33-.15-.33-.33V.96h-.02l-1.64,4.49c-.05.13-.17.22-.31.22h-.24c-.14,0-.26-.09-.31-.22l-1.64-4.49h-.02v4.38c0,.18-.15.33-.33.33h-.3c-.18,0-.33-.15-.33-.33V.33c0-.18.15-.33.33-.33Z"/>
          </g>
        </g>
      </g>
      <g id="Capa_2-2" data-name="Capa 2-2">
        <path class="cls-1" d="M85.31,177.66l4.57-40.77c.33-2.49,2.14-4.19,4.55-4.38l8.87-.68c3.65-.28,5.74,1.83,5.32,5.53l-12.26,104.7c-.33,2.49-1.95,4.17-4.55,4.38l-11.99.92c-2.62.21-4.66-1.39-5.2-3.81l-18.32-74.37-6.75,76.3c-.16,2.45-1.93,4.35-4.55,4.55l-11.65.89c-2.43.19-4.47-1.23-5.18-3.63L.27,145.71c-.97-3.6.76-6.01,4.42-6.31l8.36-.64c2.45-.19,4.47,1.23,5.18,3.63l10.92,39.58,5.88,35.41,7.91-76.89c.33-2.49,1.95-4.17,4.55-4.38l12.53-.96c2.62-.21,4.47,1.23,5.18,3.63l19.75,74.79.4-35.9h-.02l-.02-.02Z"/>
        <path class="cls-1" d="M136.96,250.9c-17,1.69-30.65-8.52-32.44-26.41l-5.67-56.95c-1.77-17.89,9.6-30.4,26.61-32.11,17.02-1.7,30.28,8.38,32.07,26.27l5.67,56.95c1.77,17.89-9.4,30.56-26.25,32.25ZM139.48,163.51c-.63-6.24-5.44-10.67-12.38-9.98-6.94.7-10.78,6.15-10.17,12.22l5.67,56.95c.63,6.24,5.46,10.85,12.39,10.15s10.8-5.98,10.15-12.39c0,0-5.67-56.95-5.67-56.95Z"/>
        <path class="cls-1" d="M169.36,158.54l14.74,40.59,7.7,26.48c.83,2.85-.59,5.44-3.44,6.28l-7.87,2.29c-2.85.83-5.27-.64-6.1-3.49l-28.93-99.35c-.83-2.85.47-5.23,3.32-6.05l9.72-2.83c2-.59,4.03.09,5.41,1.7l46.55,61.85-15.07-41.76-7.37-25.31c-.83-2.85.47-5.23,3.32-6.05l7.87-2.29c2.85-.83,5.39.42,6.22,3.27l28.93,99.33c.83,2.85-.59,5.44-3.44,6.28l-9.72,2.83c-1.84.54-4.09-.26-5.28-1.91l-46.55-61.85h0Z"/>
        <path class="cls-1" d="M231.56,243.04c-2.97-.17-4.75-2.38-4.57-5.34l6.26-103.28c.17-2.97,2.21-4.76,5.16-4.59l22.83,1.37c17.05,1.03,28.68,14.13,27.66,31.03l-3.29,54.33c-1.08,17.77-14.17,28.86-31.22,27.81l-22.83-1.37h0v.03ZM250.53,148.75l-4.68,77.32,9.4.57c6.43.38,11.79-4.17,12.22-11.32l3.27-53.98c.38-6.43-3.84-11.6-10.8-12.01l-9.4-.57h0l-.02-.02Z"/>
        <path class="cls-1" d="M294.75,173.21v29.66h27.05c2.97,0,5.06,1.91,5.06,4.88v8.21c0,2.97-2.09,5.06-5.06,5.06h-40.3c-2.97,0-4.88-2.09-4.88-5.06v-103.47c0-2.97,1.91-4.88,4.88-4.88h40.3c2.97,0,5.06,1.91,5.06,4.88v8.21c0,2.97-2.09,5.06-5.06,5.06h-27.05v29.31h27.05c2.97,0,5.06,2.09,5.06,5.06v8.21c0,2.97-2.09,4.88-5.06,4.88h-27.05,0Z"/>
        <path class="cls-1" d="M359.47,205.83c-.68.16-1.15.43-2.52.75l-8.17,1.84,6.59,29.1c.66,2.9-.92,5.39-3.82,6.05l-8,1.81c-2.9.66-5.23-.96-5.88-3.86l-22.83-100.9c-.66-2.9.78-5.18,3.69-5.84l22.63-5.13c16.67-3.77,31.47,4.68,35.39,22.04l4.35,19.23c2.5,11.06-.64,20.9-7.44,27.26l2.36,1.79c.66.56,1.65,1.77,1.98,2.42l14.2,25.59c1.83,3.36.54,6.31-3.37,7.2l-8.34,1.89c-2.21.5-4.43-.61-5.41-2.54l-15.44-28.7h.03-.02ZM354.5,188.55c6.8-1.53,10.1-7.48,8.73-13.59l-4.35-19.23c-1.39-6.12-6.88-9.89-13.68-8.34l-9.7,2.19,9.32,41.18,9.7-2.19h0l-.02-.02Z"/>
        <path class="cls-1" d="M461.74,162.52l13.32-38.8c.87-2.35,2.97-3.63,5.41-3.29l8.81,1.25c3.63.52,5.2,3.02,4,6.55l-34.68,99.54c-.87,2.35-2.8,3.65-5.41,3.29l-11.91-1.7c-2.57-.37-4.24-2.36-4.24-4.83l-1.74-76.58-23.14,73.01c-.7,2.36-2.83,3.82-5.42,3.46l-11.56-1.65c-2.43-.35-4.1-2.17-4.26-4.66l-5.22-105.24c-.17-3.74,2.05-5.7,5.67-5.18l8.29,1.18c2.42.35,4.1,2.17,4.26,4.66l2.07,41.01-1.95,35.85,24.42-73.36c.87-2.35,2.8-3.65,5.41-3.29l12.45,1.77c2.59.37,4.1,2.17,4.26,4.66l3.04,77.29,8.17-34.96h-.05v.02Z"/>
        <path class="cls-1" d="M501.69,254.52c-17.09,0-29.66-11.51-29.66-29.48v-57.23c0-17.98,12.57-29.31,29.66-29.31s29.31,11.33,29.31,29.31v57.23c0,17.98-12.38,29.48-29.31,29.48h0ZM512.85,167.81c0-6.28-4.36-11.16-11.33-11.16s-11.33,5.06-11.33,11.16v57.23c0,6.28,4.36,11.33,11.33,11.33s11.33-4.88,11.33-11.33v-57.23Z"/>
        <path class="cls-1" d="M555.46,237.99c-17.09,0-29.66-11.51-29.66-29.48v-57.23c0-17.98,12.57-29.31,29.66-29.31s29.31,11.33,29.31,29.31v57.23c0,17.98-12.38,29.48-29.31,29.48h0ZM566.62,151.27c0-6.28-4.36-11.16-11.33-11.16s-11.33,5.06-11.33,11.16v57.23c0,6.28,4.36,11.33,11.33,11.33s11.33-4.88,11.33-11.33v-57.23Z"/>
        <path class="cls-1" d="M577.82,236.49c-2.9-.63-4.35-3.06-3.72-5.96l21.52-101.21c.63-2.9,2.89-4.38,5.79-3.75l22.36,4.76c16.71,3.55,26.27,18.24,22.74,34.8l-11.32,53.23c-3.7,17.42-18.29,26.42-35.01,22.88l-22.36-4.76h0v.02ZM610.6,146.08l-16.11,75.78,9.21,1.96c6.31,1.34,12.27-2.38,13.75-9.37l11.25-52.9c1.34-6.31-2.09-12.03-8.9-13.47l-9.21-1.96h0l.02-.03Z"/>
        <path class="cls-1" d="M648.15,193.15c2.45,0,4.36,1.91,4.36,4.36v6.45c0,7.32,4.54,11.86,11.33,11.86s11.33-4.36,11.33-11.51c0-4.54-.7-7.32-4.19-10.29l-28.09-23.9c-6.97-5.75-8.55-13.44-8.55-22.51,0-17.28,11.16-29.66,29.48-29.66s29.48,12.39,29.48,29.66v6.62c0,2.62-1.91,4.54-4.54,4.54h-9.07c-2.8,0-4.54-1.91-4.54-4.54v-6.62c0-7.14-4.88-11.51-11.33-11.51s-11.33,4.36-11.33,11.51c0,4.54.7,7.86,4.19,10.81l28.09,23.9c6.8,5.93,8.55,12.74,8.55,21.97,0,17.28-11.16,29.66-29.48,29.66s-29.48-12.57-29.48-30v-6.45c0-2.43,1.74-4.36,4.36-4.36h9.42v.02Z"/>
      </g>
    </g>
  </g>
</svg>